<?xml version="1.0" encoding="UTF-8" standalone="no"?>
<svg
   xmlns:dc="http://purl.org/dc/elements/1.1/"
   xmlns:cc="http://creativecommons.org/ns#"
   xmlns:rdf="http://www.w3.org/1999/02/22-rdf-syntax-ns#"
   xmlns:svg="http://www.w3.org/2000/svg"
   xmlns="http://www.w3.org/2000/svg"
   id="svg8532"
   version="1.1"
   viewBox="0 0 101.59999 47.625"
   height="180"
   width="384">
  <defs
     id="defs8526">
    <clipPath
       id="clip346">
      <path
         id="path6852"
         d="m 496,62 h 4 v 5.496094 h -4 z m 0,0" />
    </clipPath>
    <clipPath
       id="clip345">
      <path
         id="path6849"
         d="m 487,25.371094 h 13 V 42 h -13 z m 0,0" />
    </clipPath>
    <clipPath
       id="clip344">
      <path
         id="path6846"
         d="m 532,25.371094 h 14 V 43 h -14 z m 0,0" />
    </clipPath>
    <clipPath
       id="clip343">
      <path
         id="path6843"
         d="m 515,25.371094 h 16 V 42 h -16 z m 0,0" />
    </clipPath>
    <clipPath
       id="clip342">
      <path
         id="path6840"
         d="m 502,25.371094 h 13 V 42 h -13 z m 0,0" />
    </clipPath>
    <clipPath
       id="clip341">
      <path
         id="path6837"
         d="M 480.50781,25.371094 H 570.375 v 42.125 h -89.86719 z m 0,0" />
    </clipPath>
  </defs>
  <metadata
     id="metadata8529">
    <rdf:RDF>
      <cc:Work
         rdf:about="">
        <dc:format>image/svg+xml</dc:format>
        <dc:type
           rdf:resource="http://purl.org/dc/dcmitype/StillImage" />
        <dc:title></dc:title>
      </cc:Work>
    </rdf:RDF>
  </metadata>
  <g
     transform="translate(-20.434001,-92.006981)"
     id="layer1">
    <path
       id="path6909"
       d="m 122.03482,92.017251 c -0.6536,-0.0024 -1.98291,-0.01027 -2.27878,-0.01027 -2.26997,4.871154 -8.38209,16.119359 -18.77355,22.770269 V 102.2262 h -1.91225 v 13.70367 c -21.348233,11.68102 -73.522019,0.28715 -78.631639,-0.87 0,0.5388 -0.0046,1.74884 -0.0046,2.11098 6.748058,1.51921 56.395733,12.11826 78.636056,1.08199 v 21.37914 h 1.912243 v -22.43017 c 12.0653,-7.14111 18.61904,-19.64357 21.05239,-25.185991"
       style="clip-rule:nonzero;fill:#007ac2;fill-opacity:1;fill-rule:nonzero;stroke:none;stroke-width:1.13056445" />
    <g
       clip-path="url(#clip342)"
       id="g6915"
       style="clip-rule:nonzero;fill:#000000;fill-opacity:1"
       transform="matrix(1.1305645,0,0,1.1305645,-522.81087,63.324779)">
      <path
         style="fill:#000000;fill-opacity:1;fill-rule:nonzero;stroke:none"
         d="m 506.02344,27.242188 h -1.7461 v 13.128906 h 0.86328 c 4.57422,0 7.26172,-1.785156 7.26172,-6.550782 0,-4.082031 -2.26953,-6.578124 -6.3789,-6.578124 m -0.83203,14.71875 h -2.84375 V 25.652344 h 3.74609 c 5.23437,0 8.33984,2.859375 8.33984,8.167968 0,5.792969 -3.8125,8.140626 -9.24218,8.140626"
         id="path6913" />
    </g>
    <g
       clip-path="url(#clip343)"
       id="g6919"
       style="clip-rule:nonzero;fill:#000000;fill-opacity:1"
       transform="matrix(1.1305645,0,0,1.1305645,-522.81087,63.324779)">
      <path
         style="fill:#000000;fill-opacity:1;fill-rule:nonzero;stroke:none"
         d="m 523.21484,27.214844 -3.44531,8.753906 h 6.84375 z m 5.67188,14.742187 -1.6875,-4.425781 h -7.99219 l -1.73437,4.425781 h -1.88672 l 6.5039,-16.308593 h 2.27344 l 6.53125,16.308593 z m 0,0"
         id="path6917" />
    </g>
    <g
       clip-path="url(#clip344)"
       id="g6923"
       style="clip-rule:nonzero;fill:#000000;fill-opacity:1"
       transform="matrix(1.1305645,0,0,1.1305645,-522.81087,63.324779)">
      <path
         style="fill:#000000;fill-opacity:1;fill-rule:nonzero;stroke:none"
         d="m 545.3125,34.402344 v 6.800781 c -1.62109,0.710937 -3.31641,1.027344 -5.05859,1.027344 -5.01172,0 -8.1836,-3.324219 -8.1836,-8.410157 0,-4.941406 3.33985,-8.414062 8.1836,-8.414062 1.35937,0 3.10156,0.246094 4.33984,0.808594 l -0.14063,1.710937 c -1.23828,-0.707031 -2.69531,-0.878906 -4.08203,-0.878906 -3.96093,0 -6.32031,2.835937 -6.32031,6.773437 0,3.960938 2.19531,6.773438 6.22656,6.773438 1.09766,0 2.19532,-0.148438 3.22266,-0.5625 v -5.625 z m 0,0"
         id="path6921" />
    </g>
    <g
       clip-path="url(#clip345)"
       id="g6927"
       style="clip-rule:nonzero;fill:#000000;fill-opacity:1"
       transform="matrix(1.1305645,0,0,1.1305645,-522.81087,63.324779)">
      <path
         style="fill:#000000;fill-opacity:1;fill-rule:nonzero;stroke:none"
         d="m 489.83594,34.410156 h 3.99609 c 1.98438,0 3.35156,-1.53125 3.35156,-3.585937 V 30.8125 c 0,-2.054688 -1.36718,-3.585938 -3.35156,-3.585938 h -3.99609 z m 0.0273,1.566406 v 5.992188 h -1.93359 V 25.660156 h 6.05078 c 2.93359,0 5.20703,2.046875 5.20703,5.128906 v 0.05859 c 0,3.082032 -2.27344,5.125 -5.20703,5.125 h -4.11719 z m 0,0"
         id="path6925" />
    </g>
    <path
       style="fill:#000000;fill-opacity:1;fill-rule:nonzero;stroke:none;stroke-width:1.13056421"
       d="m 30.397288,126.91017 h -0.64035 v 1.68263 h 0.33563 c 0.613864,0 1.196803,-0.084 1.196803,-0.84795 0,-0.54759 -0.366538,-0.83468 -0.892083,-0.83468 m 0,2.09773 h -0.63152 v 1.82835 h -0.516703 v -4.34118 h 1.187977 c 0.777263,0 1.382283,0.42394 1.382283,1.24096 0,0.88324 -0.688935,1.27187 -1.422037,1.27187"
       id="path6929" />
    <path
       style="fill:#000000;fill-opacity:1;fill-rule:nonzero;stroke:none;stroke-width:1.13056421"
       d="m 33.391522,130.91135 c -0.313553,0 -0.631521,-0.0397 -0.923004,-0.15447 l 0.03527,-0.43722 c 0.260578,0.13235 0.556451,0.19869 0.847924,0.19869 0.331218,0 0.688938,-0.16794 0.688938,-0.53879 0,-0.7905 -1.567774,-0.56971 -1.567774,-1.56338 0,-0.6271 0.578533,-0.88765 1.112898,-0.88765 0.269389,0 0.560869,0.0528 0.808182,0.14583 l -0.0398,0.39745 c -0.207573,-0.0927 -0.499035,-0.15896 -0.728682,-0.15896 -0.313554,0 -0.662446,0.0971 -0.662446,0.49903 0,0.60063 1.567777,0.46814 1.567777,1.55454 0,0.6271 -0.565284,0.94508 -1.139395,0.94508"
       id="path6931" />
    <path
       style="fill:#000000;fill-opacity:1;fill-rule:nonzero;stroke:none;stroke-width:1.13056421"
       d="m 36.518232,131.40596 c -0.172224,0.49901 -0.437197,0.90974 -0.931823,0.90974 -0.16341,0 -0.242887,-0.016 -0.393049,-0.0486 l 0.03979,-0.41511 c 0.0971,0.0353 0.189881,0.0617 0.291472,0.0617 0.362131,0 0.534359,-0.52113 0.609441,-0.75079 l 0.06185,-0.21632 -1.12616,-3.35195 h 0.516716 l 0.870002,2.79107 0.865583,-2.79107 h 0.499039 z m 0,0"
       id="path6933" />
    <path
       style="fill:#000000;fill-opacity:1;fill-rule:nonzero;stroke:none;stroke-width:1.13056421"
       d="m 39.940846,130.91135 c -0.998074,0 -1.550118,-0.76406 -1.550118,-1.70913 0,-0.96274 0.605034,-1.67375 1.598699,-1.67375 0.264968,0 0.538782,0.0528 0.790513,0.13684 l -0.0398,0.42397 c -0.207572,-0.0971 -0.441631,-0.16345 -0.675694,-0.16345 -0.772841,0 -1.165893,0.54762 -1.165893,1.27629 0,0.68453 0.393052,1.31164 1.134984,1.31164 0.24731,0 0.490201,-0.0617 0.715434,-0.1503 l 0.03109,0.42396 c -0.269392,0.0884 -0.552044,0.12364 -0.839093,0.12364"
       id="path6935" />
    <path
       style="fill:#000000;fill-opacity:1;fill-rule:nonzero;stroke:none;stroke-width:1.13056421"
       d="m 43.791834,130.83625 v -1.92551 c 0,-0.5167 -0.110464,-0.97597 -0.728687,-0.97597 -0.67127,0 -0.887673,0.57853 -0.887673,1.15265 v 1.74883 h -0.476952 v -4.69008 h 0.476952 v 1.99618 c 0.20757,-0.41072 0.543204,-0.61388 1.002498,-0.61388 0.794921,0 1.081983,0.54761 1.081983,1.29836 v 2.00942 z m 0,0"
       id="path6937" />
    <path
       style="fill:#000000;fill-opacity:1;fill-rule:nonzero;stroke:none;stroke-width:1.13056421"
       d="m 45.439098,127.59471 h 0.472543 v 3.24154 h -0.472543 z m 0,-1.28956 h 0.472543 v 0.56971 h -0.472543 z m 0,0"
       id="path6939" />
    <path
       style="fill:#000000;fill-opacity:1;fill-rule:nonzero;stroke:none;stroke-width:1.13056421"
       d="m 48.874951,129.21107 h -0.08831 c -0.578531,0 -1.466205,0.0444 -1.466205,0.75959 0,0.37979 0.304709,0.55645 0.658023,0.55645 0.688944,0 0.896501,-0.51668 0.896501,-1.12176 z m 0.04861,1.6296 -0.02211,-0.52112 c -0.18107,0.37538 -0.605031,0.5918 -1.006913,0.5918 -0.582944,0 -1.064314,-0.29579 -1.064314,-0.91862 0,-0.83468 0.794923,-1.12615 1.793006,-1.12615 h 0.251733 v -0.15895 c 0,-0.49462 -0.194304,-0.79934 -0.728683,-0.79934 -0.331219,0 -0.644773,0.0705 -0.931833,0.26056 l -0.03967,-0.42397 c 0.278236,-0.12365 0.693351,-0.21631 0.993651,-0.21631 0.803765,0 1.174724,0.40629 1.174724,1.21005 v 1.40877 c 0,0.23843 0.009,0.46817 0.04418,0.69339 z m 0,0"
       id="path6941" />
    <path
       style="fill:#000000;fill-opacity:1;fill-rule:nonzero;stroke:none;stroke-width:1.13056421"
       d="m 51.520302,130.91135 c -0.662442,0 -0.750773,-0.48581 -0.750773,-1.07761 v -1.86807 h -0.609441 v -0.37096 h 0.609441 v -0.72869 l 0.468133,-0.16344 v 0.89211 h 0.737512 v 0.37095 h -0.737512 v 1.99174 c 0,0.28716 0.07949,0.54321 0.419541,0.54321 0.132484,0 0.24731,-0.0353 0.366552,-0.0884 l 0.02211,0.40186 c -0.158987,0.0618 -0.357722,0.0971 -0.525531,0.0971"
       id="path6943" />
    <path
       style="fill:#000000;fill-opacity:1;fill-rule:nonzero;stroke:none;stroke-width:1.13056421"
       d="m 54.426203,128.03191 c -0.08831,-0.0255 -0.176647,-0.0397 -0.260547,-0.0397 -0.666854,0 -0.803764,0.7287 -0.803764,1.23658 v 1.61193 h -0.472544 v -2.48195 c 0,-0.25605 -0.009,-0.51228 -0.03527,-0.76401 h 0.437214 l 0.0266,0.61388 c 0.128061,-0.33565 0.454869,-0.68013 0.861174,-0.68013 0.0883,0 0.181069,0 0.273814,0.0255 z m 0,0"
       id="path6945" />
    <path
       style="fill:#000000;fill-opacity:1;fill-rule:nonzero;stroke:none;stroke-width:1.13056421"
       d="m 55.252046,127.59471 h 0.47254 v 3.24154 h -0.47254 z m 0,-1.28956 h 0.47254 v 0.56971 h -0.47254 z m 0,0"
       id="path6947" />
    <path
       style="fill:#000000;fill-opacity:1;fill-rule:nonzero;stroke:none;stroke-width:1.13056421"
       d="m 57.583836,130.91135 c -0.313554,0 -0.631536,-0.0397 -0.927427,-0.15447 l 0.0398,-0.43722 c 0.260578,0.13235 0.556454,0.19869 0.847926,0.19869 0.33122,0 0.688941,-0.16794 0.688941,-0.53879 0,-0.7905 -1.567777,-0.56971 -1.567777,-1.56338 0,-0.6271 0.578534,-0.88765 1.112895,-0.88765 0.264968,0 0.560872,0.0528 0.808183,0.14583 l -0.0398,0.39745 c -0.207571,-0.0927 -0.503451,-0.15896 -0.728684,-0.15896 -0.313552,0 -0.666864,0.0971 -0.666864,0.49903 0,0.60063 1.572199,0.46814 1.572199,1.55454 0,0.6271 -0.569701,0.94508 -1.139393,0.94508"
       id="path6949" />
    <path
       style="fill:#000000;fill-opacity:1;fill-rule:nonzero;stroke:none;stroke-width:1.13056421"
       d="m 61.015266,130.91135 c -0.998071,0 -1.550104,-0.76406 -1.550104,-1.70913 0,-0.96274 0.605033,-1.67375 1.594276,-1.67375 0.264968,0 0.543191,0.0528 0.794924,0.13684 l -0.0398,0.42397 c -0.207573,-0.0971 -0.441626,-0.16345 -0.675686,-0.16345 -0.777265,0 -1.165895,0.54762 -1.165895,1.27629 0,0.68453 0.38863,1.31164 1.130565,1.31164 0.247312,0 0.490201,-0.0617 0.719855,-0.1503 l 0.03078,0.42396 c -0.273815,0.0884 -0.552029,0.12364 -0.839092,0.12364"
       id="path6951" />
    <path
       style="fill:#000000;fill-opacity:1;fill-rule:nonzero;stroke:none;stroke-width:1.13056421"
       d="m 64.861844,130.83625 v -1.92551 c 0,-0.5167 -0.110463,-0.97597 -0.728684,-0.97597 -0.671274,0 -0.883256,0.57853 -0.883256,1.15265 v 1.74883 h -0.476957 v -4.69008 h 0.476957 v 1.99618 c 0.207574,-0.41072 0.538785,-0.61388 1.002486,-0.61388 0.790511,0 1.077574,0.54761 1.077574,1.29836 v 2.00942 z m 0,0"
       id="path6953" />
    <path
       style="fill:#000000;fill-opacity:1;fill-rule:nonzero;stroke:none;stroke-width:1.13056421"
       d="m 67.701504,127.90826 c -0.591783,0 -0.892092,0.64477 -0.892092,1.08643 h 1.687016 c 0,-0.50347 -0.203149,-1.08643 -0.794924,-1.08643 m -0.892092,1.43971 c 0,0.63153 0.35772,1.17914 1.042241,1.17914 0.282659,0 0.675683,-0.0884 0.918587,-0.22977 l 0.0398,0.44161 c -0.300287,0.11917 -0.675681,0.17209 -1.002482,0.17209 -1.051075,0 -1.492708,-0.73751 -1.492708,-1.70909 0,-0.83024 0.507872,-1.67376 1.382294,-1.67376 0.914166,0 1.280718,0.75519 1.280718,1.62077 v 0.1987 z m 0,0"
       id="path6955" />
    <path
       style="fill:#000000;fill-opacity:1;fill-rule:nonzero;stroke:none;stroke-width:1.13056421"
       d="m 73.120255,126.91901 h -0.596192 v 3.49329 h 0.362132 c 1.218893,0 1.934326,-0.47255 1.934326,-1.74444 0,-1.08642 -0.60503,-1.74885 -1.700266,-1.74885 m -0.220807,3.92166 h -0.892082 v -4.3456 h 1.134982 c 1.391115,0 2.21696,0.76402 2.21696,2.17279 0,1.54572 -1.015733,2.17281 -2.45986,2.17281"
       id="path6957" />
    <path
       style="fill:#000000;fill-opacity:1;fill-rule:nonzero;stroke:none;stroke-width:1.13056421"
       d="m 76.397127,127.59471 h 0.472544 v 3.24154 h -0.472544 z m 0,-1.28956 h 0.472544 v 0.56971 h -0.472544 z m 0,0"
       id="path6959" />
    <path
       style="fill:#000000;fill-opacity:1;fill-rule:nonzero;stroke:none;stroke-width:1.13056421"
       d="m 79.236788,127.90826 c -0.596193,0 -0.892083,0.64477 -0.892083,1.08643 h 1.682597 c 0,-0.50347 -0.198729,-1.08643 -0.790514,-1.08643 m -0.892083,1.43971 c 0,0.63153 0.353301,1.17914 1.042235,1.17914 0.278238,0 0.675695,-0.0884 0.914177,-0.22977 l 0.03967,0.44161 c -0.300286,0.11917 -0.675683,0.17209 -1.002493,0.17209 -1.046657,0 -1.492696,-0.73751 -1.492696,-1.70909 0,-0.83024 0.507871,-1.67376 1.382295,-1.67376 0.918584,0 1.285138,0.75519 1.285138,1.62077 v 0.1987 z m 0,0"
       id="path6961" />
    <path
       style="fill:#000000;fill-opacity:1;fill-rule:nonzero;stroke:none;stroke-width:1.13056421"
       d="m 83.560316,130.83625 v -1.92109 c 0,-0.51228 -0.114829,-0.98039 -0.728682,-0.98039 -0.680103,0 -0.887675,0.57853 -0.887675,1.15705 v 1.74443 h -0.476951 v -2.47752 c 0,-0.25606 -0.0044,-0.51228 -0.0311,-0.76402 h 0.43721 l 0.01762,0.56086 c 0.229653,-0.41072 0.574111,-0.6271 1.051065,-0.6271 0.825841,0 1.086403,0.54761 1.086403,1.29836 v 2.00942 z m 0,0"
       id="path6963" />
    <path
       style="fill:#000000;fill-opacity:1;fill-rule:nonzero;stroke:none;stroke-width:1.13056421"
       d="m 85.892105,130.91135 c -0.313552,0 -0.631523,-0.0397 -0.927414,-0.15447 l 0.03967,-0.43722 c 0.260546,0.13235 0.55203,0.19869 0.847922,0.19869 0.33122,0 0.688943,-0.16794 0.688943,-0.53879 0,-0.7905 -1.567775,-0.56971 -1.567775,-1.56338 0,-0.6271 0.578531,-0.88765 1.112894,-0.88765 0.264968,0 0.560872,0.0528 0.808184,0.14583 l -0.03979,0.39745 c -0.207573,-0.0927 -0.503454,-0.15896 -0.728684,-0.15896 -0.313552,0 -0.666851,0.0971 -0.666851,0.49903 0,0.60063 1.572184,0.46814 1.572184,1.55454 0,0.6271 -0.569691,0.94508 -1.139396,0.94508"
       id="path6965" />
    <path
       style="fill:#000000;fill-opacity:1;fill-rule:nonzero;stroke:none;stroke-width:1.13056421"
       d="m 88.965827,130.91135 c -0.666853,0 -0.750764,-0.48581 -0.750764,-1.07761 v -1.86807 h -0.613859 v -0.37096 h 0.613859 v -0.72869 l 0.468122,-0.16344 v 0.89211 h 0.737516 v 0.37095 h -0.737516 v 1.99174 c 0,0.28716 0.07949,0.54321 0.419544,0.54321 0.12806,0 0.247309,-0.0353 0.362143,-0.0884 l 0.0266,0.40186 c -0.163409,0.0618 -0.357708,0.0971 -0.525532,0.0971"
       id="path6967" />
    <path
       style="fill:#000000;fill-opacity:1;fill-rule:nonzero;stroke:none;stroke-width:1.13056421"
       d="m 91.522846,127.90826 c -0.591783,0 -0.892081,0.64477 -0.892081,1.08643 h 1.687006 c 0,-0.50347 -0.203149,-1.08643 -0.794925,-1.08643 m -0.892081,1.43971 c 0,0.63153 0.357711,1.17914 1.042235,1.17914 0.278235,0 0.675691,-0.0884 0.918582,-0.22977 l 0.0398,0.44161 c -0.300317,0.11917 -0.680115,0.17209 -1.002493,0.17209 -1.051075,0 -1.492697,-0.73751 -1.492697,-1.70909 0,-0.83024 0.507861,-1.67376 1.377876,-1.67376 0.918585,0 1.285124,0.75519 1.285124,1.62077 v 0.1987 z m 0,0"
       id="path6969" />
    <path
       style="fill:#000000;fill-opacity:1;fill-rule:nonzero;stroke:none;stroke-width:1.13056421"
       d="m 30.755013,133.78633 -0.918585,2.33176 h 1.823916 z m 1.510363,3.92603 -0.450461,-1.17911 h -2.12864 l -0.463709,1.17911 h -0.499044 l 1.731177,-4.34562 h 0.605035 l 1.740004,4.34562 z m 0,0"
       id="path6971" />
    <path
       style="fill:#000000;fill-opacity:1;fill-rule:nonzero;stroke:none;stroke-width:1.13056421"
       d="m 35.317009,136.08278 h -0.08831 c -0.578534,0 -1.466209,0.0486 -1.466209,0.76402 0,0.3798 0.30474,0.55202 0.658035,0.55202 0.688931,0 0.896493,-0.51228 0.896493,-1.12173 z m 0.04861,1.62958 -0.02211,-0.52108 c -0.18107,0.37537 -0.605023,0.59175 -1.006906,0.59175 -0.582952,0 -1.064324,-0.29162 -1.064324,-0.91857 0,-0.83468 0.794934,-1.12616 1.793007,-1.12616 h 0.251733 v -0.15447 c 0,-0.49903 -0.194303,-0.79932 -0.728681,-0.79932 -0.331224,0 -0.644774,0.0663 -0.931835,0.26055 l -0.03968,-0.42838 c 0.278203,-0.11917 0.693354,-0.21185 0.993654,-0.21185 0.803765,0 1.174735,0.40189 1.174735,1.21007 v 1.40437 c 0,0.24291 0.009,0.47255 0.04418,0.69336 z m 0,0"
       id="path6973" />
    <path
       style="fill:#000000;fill-opacity:1;fill-rule:nonzero;stroke:none;stroke-width:1.13056421"
       d="m 38.501142,134.90363 c -0.08387,-0.0255 -0.176646,-0.0398 -0.260579,-0.0398 -0.662444,0 -0.799344,0.7331 -0.799344,1.24098 v 1.60752 h -0.476934 v -2.48195 c 0,-0.25606 -0.0044,-0.50789 -0.03109,-0.75959 h 0.43721 l 0.0266,0.60941 c 0.128063,-0.33121 0.454872,-0.67563 0.856755,-0.67563 0.09271,0 0.18549,0 0.273814,0.0255 z m 0,0"
       id="path6975" />
    <g
       clip-path="url(#clip346)"
       id="g6979"
       style="clip-rule:nonzero;fill:#000000;fill-opacity:1"
       transform="matrix(1.1305645,0,0,1.1305645,-522.81087,63.324779)">
      <path
         style="fill:#000000;fill-opacity:1;fill-rule:nonzero;stroke:none"
         d="m 498.23047,63.226562 c -0.65235,0 -0.80078,0.597657 -0.80078,1.128907 0,0.496093 0.15625,1.082031 0.79297,1.082031 0.60937,0 0.8125,-0.601562 0.8125,-1.082031 0,-0.5 -0.20704,-1.128907 -0.80469,-1.128907 m -0.12891,3.878907 c -0.29687,0 -0.60156,-0.05859 -0.89062,-0.152344 l 0.0351,-0.40625 c 0.25391,0.125 0.53907,0.207031 0.82813,0.207031 0.6914,0 0.94922,-0.46875 0.94922,-1.09375 v -0.371094 c -0.17188,0.316407 -0.52735,0.507813 -0.88672,0.507813 -0.84766,0 -1.15625,-0.742187 -1.15625,-1.445313 0,-0.761718 0.32031,-1.480468 1.16797,-1.480468 0.40234,0 0.71484,0.175781 0.89843,0.542968 v -0.484374 h 0.39844 v 2.722656 c 0,0.894531 -0.41015,1.453125 -1.34375,1.453125"
         id="path6977" />
    </g>
    <path
       style="fill:#000000;fill-opacity:1;fill-rule:nonzero;stroke:none;stroke-width:1.13056421"
       d="m 44.807576,136.08278 h -0.09271 c -0.578522,0 -1.466197,0.0486 -1.466197,0.76402 0,0.3798 0.309131,0.55202 0.658024,0.55202 0.693353,0 0.900923,-0.51228 0.900923,-1.12173 z m 0.04417,1.62958 -0.01762,-0.52108 c -0.185494,0.37537 -0.609443,0.59175 -1.011324,0.59175 -0.578535,0 -1.059905,-0.29162 -1.059905,-0.91857 0,-0.83468 0.794932,-1.12616 1.788587,-1.12616 h 0.25616 v -0.15447 c 0,-0.49903 -0.194304,-0.79932 -0.728696,-0.79932 -0.33563,0 -0.644769,0.0663 -0.931819,0.26055 l -0.0398,-0.42838 c 0.273813,-0.11917 0.688932,-0.21185 0.989242,-0.21185 0.808174,0 1.179145,0.40189 1.179145,1.21007 v 1.40437 c 0,0.24291 0.0044,0.47255 0.03967,0.69336 z m 0,0"
       id="path6981" />
    <path
       style="fill:#000000;fill-opacity:1;fill-rule:nonzero;stroke:none;stroke-width:1.13056421"
       d="m 48.583482,137.71236 -0.01314,-0.56085 c -0.225231,0.41071 -0.574116,0.63152 -1.046656,0.63152 -0.825844,0 -1.081984,-0.56086 -1.081984,-1.30721 v -2.00498 h 0.472544 v 1.92107 c 0,0.51228 0.101531,0.98043 0.719851,0.98043 0.675682,0 0.883253,-0.57856 0.883253,-1.16149 v -1.74001 h 0.468122 v 2.47752 c 0,0.25604 0.009,0.50788 0.03527,0.764 z m 0,0"
       id="path6983" />
    <path
       style="fill:#000000;fill-opacity:1;fill-rule:nonzero;stroke:none;stroke-width:1.13056421"
       d="m 53.741681,133.78633 -0.918584,2.33176 h 1.823915 z m 1.510365,3.92603 -0.450462,-1.17911 h -2.12864 l -0.459289,1.17911 h -0.503463 l 1.731174,-4.34562 H 54.0464 l 1.740007,4.34562 z m 0,0"
       id="path6985" />
    <path
       style="fill:#000000;fill-opacity:1;fill-rule:nonzero;stroke:none;stroke-width:1.13056421"
       d="m 58.449419,137.78303 c -1.369045,0 -2.23463,-0.88322 -2.23463,-2.23902 0,-1.31607 0.914164,-2.23906 2.23463,-2.23906 0.370972,0 0.847922,0.0663 1.183563,0.21184 l -0.03527,0.45488 c -0.340051,-0.18557 -0.737526,-0.23396 -1.117314,-0.23396 -1.077574,0 -1.722348,0.75959 -1.722348,1.80627 0,1.05547 0.596193,1.80183 1.700259,1.80183 0.295893,0 0.596201,-0.0398 0.87884,-0.14582 v -1.41322 h -0.940661 v -0.41511 h 1.435287 v 2.13745 c -0.446044,0.19005 -0.905337,0.2737 -1.382299,0.2737"
       id="path6987" />
  </g>
</svg>
